HIERARCHY
ROOT Spine
{
    OFFSET 0.0 0.0 -0.0
    CHANNELS 6 Xposition Yposition Zposition Zrotation Xrotation Yrotation
    JOINT ShoulderCenter
    {
        OFFSET 0.0 32.91801452636719 0.0
        CHANNELS 3 Zrotation Xrotation Yrotation
        JOINT LeftShoulder
        {
            OFFSET 18.90908432006836 0.0 0.0
            CHANNELS 3 Zrotation Xrotation Yrotation
            JOINT LeftElbow
            {
                OFFSET 28.86017608642578 0.0 0.0
                CHANNELS 3 Zrotation Xrotation Yrotation
                JOINT LeftHand
                {
                    OFFSET 32.74818420410156 0.0 0.0
                    CHANNELS 3 Zrotation Xrotation Yrotation
                    End Site
                    {
                        OFFSET 13.099272727966309 0.0 0.0
                    }
                }
            }
        }
        JOINT RightShoulder
        {
            OFFSET -18.90908432006836 0.0 0.0
            CHANNELS 3 Zrotation Xrotation Yrotation
            JOINT RightElbow
            {
                OFFSET -28.86017608642578 0.0 0.0
                CHANNELS 3 Zrotation Xrotation Yrotation
                JOINT RightHand
                {
                    OFFSET -32.74818420410156 0.0 0.0
                    CHANNELS 3 Zrotation Xrotation Yrotation
                    End Site
                    {
                        OFFSET -13.099272727966309 0.0 0.0
                    }
                }
            }
        }
        End Site
        {
            OFFSET 0.0 13.167206764221191 0.0
        }
    }
    JOINT LeftHip
    {
        OFFSET 16.377992894104644 -16.377992894104644 0.0
        CHANNELS 3 Zrotation Xrotation Yrotation
        JOINT LeftKnee
        {
            OFFSET 0.0 -41.17974090576172 0.0
            CHANNELS 3 Zrotation Xrotation Yrotation
            JOINT LeftFoot
            {
                OFFSET 0.0 -40.11579132080078 0.0
                CHANNELS 3 Zrotation Xrotation Yrotation
                End Site
                {
                    OFFSET 0.0 0.0 16.04631805419922
                }
            }
        }
    }
    JOINT RightHip
    {
        OFFSET -16.377992894104644 -16.377992894104644 0.0
        CHANNELS 3 Zrotation Xrotation Yrotation
        JOINT RightKnee
        {
            OFFSET 0.0 -41.17974090576172 0.0
            CHANNELS 3 Zrotation Xrotation Yrotation
            JOINT RightFoot
            {
                OFFSET 0.0 -40.11579132080078 0.0
                CHANNELS 3 Zrotation Xrotation Yrotation
                End Site
                {
                    OFFSET 0.0 0.0 16.04631805419922
                }
            }
        }
    }
}
MOTION
Frames: 11
Frame Time: 0.03333333333333333
75.30000305175781 66.0999984741211 253.80001831054688 6.842775865152318 -5.236591108896119 -173.1539130898993 -7.68631382044314e-07 7.807730206561472e-07 -8.872897888552115 113.55499905793089 8.854351275510107 -86.00964742682207 6.089810617647242e-07 5.653381658989738e-07 74.29447847648808 5.565970692561156e-15 0.0 0.0 -88.0107292009112 -2.410718390051432 91.82567623809297 5.234980570221147e-06 3.8116341909244147e-06 -90.02164089632483 1.0436195048552163e-15 -7.241565020238542e-33 -7.951386703658791e-16 6.669121858824661 -12.326688760417454 -21.52247051561344 -6.258930634265887 11.68578049301924 -24.806786774811062 7.951386703658791e-16 -7.951386703658791e-16 2.7829853462805768e-15 8.791708398071512 -11.753745002468241 20.146693150281305 0.6689672668901402 11.445545052632674 22.660123180812565 4.525978137649088e-33 -7.951386703658792e-16 6.522621905345102e-16
74.69999694824219 66.0999984741211 254.0 6.821971743679023 -5.393791836839529 -174.20439073096904 1.6420562991851166e-07 -1.876500966211297e-07 -7.59699960446701 112.01223120860885 6.132891464034047 -85.28513984117347 7.837259374698518e-07 1.94437697434633e-06 74.464185150427 1.0933156717530838e-15 1.517280289954742e-32 1.5902773407317584e-15 -88.04087194654373 -1.4345163502801783 91.91577187193782 2.2003060518797952e-07 6.47654164550341e-07 -90.12278253323397 7.727753952618388e-15 5.362206479271872e-32 7.951386703658792e-16 7.018760997271124 -12.212395079666761 -23.081125975707458 -7.107611543029888 10.966226131759981 -23.65431302000578 0.0 0.0 -2.087239009710433e-15 9.08451530807661 -12.175426680473937 17.98645280365126 -0.15322552162692216 11.8205365478195 23.388388342902992 0.0 0.0 2.9755579930098137e-15
74.19999694824219 66.0999984741211 254.20001220703125 6.475181416785148 -5.57064984339886 -174.6544491190498 1.495709649387133e-07 2.649123872919717e-07 -6.794559446102236 110.87193195324761 4.038739758016508 -85.06987800903718 7.538569900232389e-07 -2.876053282443736e-07 75.01663011045912 -9.044702375411874e-15 -1.5902773407317582e-15 1.5902773407317578e-15 -88.25370374574362 -0.46914771791782384 91.79132511622026 9.328189222587402e-07 -2.1257045479470298e-06 -89.46294256611436 3.429035515952854e-15 0.0 0.0 6.450835765296112 -12.421831096694383 -22.475361882734905 -7.014102413735582 10.843737991391357 -23.727535943783064 -1.1927080055488186e-15 7.951386703658791e-16 -7.205944200190779e-16 8.48943891227237 -12.758098120469977 16.66398566256002 -0.32566039882474135 12.304847130570966 24.393448214662424 0.0 0.0 -3.000406076458747e-15
73.69999694824219 66.19999694824219 254.39999389648438 6.475181988869168 -5.57059714939435 -175.02024847134317 6.485197444790928e-08 1.4334204167735343e-07 -6.07470746407464 110.8871738752997 2.618194027864536 -85.08501301111221 5.3119649153064855e-08 -2.2625650516416363e-07 75.45885455880712 2.9817700138720468e-15 0.0 0.0 -88.12505994869588 0.6455427529224034 92.03328984867713 -2.7611488564435707e-06 5.171664982209717e-06 -89.18157568140272 8.448348372637467e-16 0.0 0.0 6.252433561283259 -12.219045583626649 -22.862756078264773 -7.11112949782349 10.273809294028561 -22.648477184147097 9.93923337957349e-16 -6.37947394640062e-32 -7.355032700884382e-15 8.411960966895341 -12.965018318082917 15.379300335410095 -0.5080886754858865 12.368516446813418 24.434416301022782 0.0 0.0 -4.4633369895147206e-15
73.19999694824219 66.19999694824219 254.6999969482422 6.301606764374421 -5.9183778210318625 -175.4960650779091 -8.063972937188777e-08 3.6926620398888234e-07 -5.398744829129951 110.1160254407793 0.7593961110800651 -85.69546484380459 2.1978946808010047e-06 -7.034601393153682e-07 76.43505316888233 2.1866313435061676e-15 0.0 0.0 -88.17152523624789 1.4024412627071017 92.10076003223564 -1.5553469376901373e-06 -1.1250193230510775e-06 -89.04643544751843 -3.1805546814635176e-15 -7.951386703658794e-16 -2.2069531490250793e-32 6.005158127266072 -12.646563323482813 -23.631414671060423 -7.0017542069898875 10.421757238891662 -23.868979840129523 -9.93923337957349e-16 -2.3707504530542843e-32 2.7332891793827097e-15 8.325120674613231 -13.378745351994423 14.957577410948552 -0.8986269289853104 12.257421849560338 23.738765501818783 -1.9878466759146977e-16 3.502244987466557e-35 -2.018906780225865e-17
72.79999542236328 66.29999542236328 255.0 6.320839228461858 -6.109517289716612 -176.58034015325276 -2.9511242442465156e-07 3.8393953717610757e-07 -4.106787123713937 109.34214754288452 -1.1651197110825906 -85.6728000315482 -3.710074201753961e-06 -3.193907322127113e-07 76.1071539726802 -9.939233379573492e-16 -1.5902773407317588e-15 -1.5902773407317588e-15 -88.03323702183613 2.167828837210214 92.13361313448084 -4.547051862934867e-06 1.963023039147816e-06 -88.56830721553526 -5.317489858071817e-15 -7.951386703658792e-16 7.951386703658792e-16 6.120248575623573 -12.573745324645824 -24.348917088185313 -7.114157863419705 9.674704578191735 -22.4117356208352 0.0 0.0 -1.3666445896913548e-15 8.295017791856317 -13.804716759428812 13.977839366893823 -0.9078797575040468 12.222891751694263 23.844995554291145 -1.987846675914698e-16 4.490955687774423e-33 -2.5888596943357824e-15
72.39999389648438 66.0999984741211 255.3000030517578 6.127901794755904 -5.9203181834603855 -176.96063682637555 -5.194828473646439e-07 3.881647390480602e-07 -3.5463401831233834 108.30868578677851 -3.2036483925107824 -85.03210781770231 -1.1502569486089225e-07 -5.729430081745715e-07 75.16615933989608 7.156248033292912e-15 4.965644585306429e-32 7.951386703658791e-16 -88.11917159181716 2.779194674055492 92.14614761003595 5.48317144500617e-06 4.881172333594086e-06 -88.01333841794386 -4.572047354603805e-15 7.951386703658792e-16 3.1724951517235514e-32 6.007272800757938 -12.462694175326297 -26.494306770273315 -7.79344203375864 9.559062210658725 -21.94768885991686 5.963540027744094e-16 -2.3276458993623882e-33 -4.472655020808071e-16 7.918519529677395 -13.564029944142186 14.6506919353048 -0.6011025409738996 12.034967453480924 22.94362554401156 0.0 0.0 1.3604325688291212e-15
72.0 66.0 255.6999969482422 6.12791550401657 -5.920318140167633 -177.31252548718012 3.257477764425061e-07 -9.869801032973642e-08 -2.8332393231937285 107.66627028209042 -5.184668968777384 -84.44793854630602 8.5091182464501e-07 8.169749848359514e-06 74.49780384333066 -5.963540027744093e-16 7.951386703658791e-16 -7.951386703658791e-16 -87.83589049487388 3.3556299233091873 92.15857927087904 9.008845219742024e-07 -3.2706157700614456e-07 -87.15389616318268 7.951386703658792e-16 0.0 0.0 5.784101473967189 -12.696962249910394 -26.534581145968374 -7.667581893809649 9.766089063372467 -22.624662298448655 7.951386703658792e-16 -6.896728590703373e-34 -9.93923337957349e-17 7.852841977249368 -13.78276677084596 14.093094813468424 -0.7996572686162104 12.015886848941598 22.704072301329546 -2.622912092151876e-32 7.951386703658792e-16 3.7800146946690425e-15
71.5999984741211 65.9000015258789 256.1000061035156 5.954110077232835 -5.922231621269624 -178.11718135013246 -9.419614017756459e-08 -4.5750003377367394e-07 -1.8270277095206156 107.51533704645446 -6.150393192826144 -84.02406292316608 -1.5051076430634145e-06 -1.637664362397518e-06 73.96597615846837 -6.758678698109972e-15 -7.951386703658791e-16 1.590277340731758e-15 -88.15385898195142 4.163316015501514 92.00585399396131 1.360487791922212e-06 4.1980826170065175e-06 -85.9250361326807 -2.3854160110976376e-15 0.0 0.0 5.790122125195439 -12.472024393010331 -29.78270630194368 -8.128617890553041 8.833154857125633 -20.79166000943836 -6.465683053784412e-33 -3.975693351829396e-16 -1.8636062586700292e-15 7.721752010704718 -14.074662751977911 13.837586779700699 -0.9570781951407553 12.257253535095451 22.794201798437797 0.0 0.0 8.603648894193302e-16
71.30000305175781 65.9000015258789 256.3999938964844 5.780195657212209 -5.404567236439159 -178.13896891541137 -1.2287910898656057e-07 -2.1408715707732817e-07 -1.7961856662731077 107.35511337060215 -6.673943757986548 -84.02749265814727 -6.249417883151796e-07 -1.3564102556122484e-06 72.92750071157168 -5.9635400277440935e-15 0.0 0.0 -88.28889302267768 4.593447960189367 92.32682455675379 -2.7977123739726414e-06 2.5175562972543386e-06 -85.16127733762681 -2.3854160110976384e-15 1.5902773407317588e-15 3.310429723537619e-32 5.327523334046186 -12.225812630164576 -28.82523971790379 -7.79429164992243 9.242789694117114 -22.087877855059833 -7.951386703658794e-16 3.975693351829397e-16 5.46657835876542e-16 7.546958052961213 -13.690935354558684 13.267352289174324 -1.3475802531444991 12.311193274527822 22.885400938504944 -3.975693351829396e-16 -8.620910738379216e-33 2.4848083448933726e-15
71.0 65.80000305175781 256.8000183105469 5.589138904689023 -5.044065065808093 -179.28583446822824 -5.231122917047652e-09 4.151875204794158e-07 -0.47011720382316796 106.9820047709957 -7.344094447429736 -84.05878783712582 2.8109066241313616e-06 4.208229143383271e-06 71.94135455157966 3.3793393490549868e-15 7.951386703658791e-16 -2.3854160110976376e-15 -88.84806645578601 5.408851111690857 92.18120135983202 -2.4458163086391666e-06 -4.078517533391632e-07 -83.91791441937946 -5.963540027744093e-16 -8.276074308844047e-33 1.5902773407317582e-15 5.23181859324984 -11.897180818019532 -30.37040159137865 -8.038798753515922 9.140330072683353 -21.91051183518181 0.0 0.0 1.9133024255678967e-15 7.344279293064355 -13.606987501235412 12.997812121661681 -1.0902552072834102 12.159253073554401 22.28947488063798 0.0 0.0 1.223768109859986e-15
